# Blender v2.63 (sub 0) OBJ File: '18953.blend'
# www.blender.org
mtllib base_bm.mtl
v 55.273201 6.650342 158.817993
v 34.926800 10.726112 158.817993
v 34.926800 10.726115 201.852005
v 55.273201 6.650345 201.852005
v 54.084900 0.718198 201.852005
v 54.084900 0.718198 194.352005
v 53.593800 -1.733105 192.352005
v 53.593800 -1.733107 168.317993
v 54.084900 0.718196 166.317993
v 54.084900 0.718195 158.817993
v 47.603100 -31.638985 192.352005
v 47.210300 -33.599983 194.352005
v 47.603100 -31.638987 168.317993
v 47.210300 -33.599987 166.317993
v 44.268700 -33.010784 194.352005
v 33.738400 4.793975 194.352005
v 33.738400 4.793972 166.317993
v 44.268700 -33.010788 166.317993
v 49.571999 -6.536716 184.335007
v 50.161201 -3.595157 176.335007
v 50.161201 -3.595156 184.335007
v 49.571999 -6.536716 176.335007
v 53.103600 -1.634895 192.352005
v 53.103600 -1.634897 168.317993
v 47.112801 -31.540785 192.352005
v 52.612499 -4.086196 176.335007
v 52.612499 -4.086196 184.335007
v 52.023300 -7.027756 184.335007
v 52.023300 -7.027757 176.335007
v 47.112801 -31.540787 168.317993
v 50.108200 -16.587786 180.335007
v 33.738400 4.793975 201.852005
v 33.738400 4.793972 158.817993
v 34.332600 7.760044 180.335007
v 41.345501 5.309854 179.559998
v 41.150501 5.348933 179.535004
v 40.461700 0.897516 179.559998
v 40.266602 0.936593 179.535004
v 41.528400 5.273233 179.634003
v 40.644501 0.860894 179.634003
v 41.687401 5.241374 179.751999
v 40.803600 0.829028 179.751999
v 41.812801 5.216263 179.906006
v 40.928902 0.803921 179.906006
v 41.896500 5.199494 180.087997
v 41.012600 0.787150 180.087997
v 41.933300 5.192114 180.285004
v 41.049500 0.779770 180.285004
v 41.921001 5.194584 180.485001
v 41.037102 0.782243 180.485001
v 41.860199 5.206754 180.675995
v 40.976299 0.794415 180.675995
v 41.754902 5.227864 180.845001
v 40.870998 0.815520 180.845001
v 41.611500 5.256574 180.981995
v 40.727699 0.844232 180.981995
v 41.439201 5.291094 181.078995
v 40.555302 0.878748 181.078995
v 41.248798 5.329244 181.128998
v 40.364899 0.916899 181.128998
v 41.052101 5.368634 181.128998
v 40.168301 0.956287 181.128998
v 40.861698 5.406784 181.078995
v 39.977798 0.994438 181.078995
v 40.689400 5.441294 180.981995
v 39.805500 1.028954 180.981995
v 40.546101 5.470004 180.845001
v 39.662201 1.057664 180.845001
v 40.440701 5.491114 180.675995
v 39.556801 1.078774 180.675995
v 40.379902 5.503284 180.485001
v 39.496101 1.090944 180.485001
v 40.367599 5.505754 180.285004
v 39.483700 1.093414 180.285004
v 40.404400 5.498374 180.087997
v 39.520599 1.086034 180.087997
v 40.488201 5.481603 179.906006
v 39.604301 1.069264 179.906006
v 40.613499 5.456503 179.751999
v 39.729599 1.044154 179.751999
v 40.772598 5.424634 179.634003
v 39.888699 1.012294 179.634003
v 40.955399 5.388013 179.559998
v 40.071499 0.975671 179.559998
v 40.266602 0.936593 180.332001
v 41.150501 5.348934 180.332001
vn 0.196417 0.980520 -0.000000
vn 0.980521 -0.196414 0.000000
vn 0.980516 -0.196439 0.000000
vn 0.980523 -0.196404 0.000000
vn 0.980520 -0.196417 -0.000013
vn 0.980521 -0.196416 -0.000029
vn 0.980520 -0.196417 0.000013
vn 0.980521 -0.196416 0.000029
vn -0.963327 -0.268329 0.000000
vn 0.980524 -0.196402 0.000000
vn -0.000000 -0.000000 -1.000000
vn -0.196443 -0.980515 0.000000
vn -0.196416 -0.980521 0.000000
vn 0.196416 0.980521 -0.000000
vn 0.000000 -0.000000 1.000000
vn 0.196385 0.980527 -0.000000
vn 0.980524 -0.196400 -0.000012
vn 0.980524 -0.196400 0.000012
vn 0.980520 -0.196419 0.000001
vn 0.980520 -0.196419 -0.000001
vn 0.980520 -0.196419 0.000000
vn 0.980520 -0.196421 0.000000
vn 0.980520 -0.196420 -0.000002
vn 0.980520 -0.196420 0.000002
vn -0.196398 -0.980524 0.000000
vn -0.980518 0.196430 -0.000000
vn -0.122266 0.024490 0.992195
vn -0.122207 0.024481 0.992203
vn -0.361600 0.072429 0.929515
vn -0.361761 0.072470 0.929450
vn -0.576909 0.115569 0.808591
vn -0.576682 0.115510 0.808761
vn -0.754340 0.151096 0.638859
vn -0.754573 0.151159 0.638569
vn -0.887721 0.177832 0.424650
vn -0.887720 0.177832 0.424652
vn -0.963195 0.192951 0.187151
vn -0.963111 0.192913 0.187619
vn -0.978596 0.196037 -0.062599
vn -0.978571 0.196009 -0.063085
vn -0.932600 0.186823 -0.308795
vn -0.932600 0.186823 -0.308796
vn -0.827575 0.165784 -0.536317
vn -0.827569 0.165783 -0.536326
vn -0.670321 0.134282 -0.729821
vn -0.670569 0.134316 -0.729586
vn -0.473855 0.094914 -0.875473
vn -0.473654 0.094884 -0.875585
vn -0.244507 0.048981 -0.968410
vn 0.244508 -0.048975 -0.968410
vn 0.244392 -0.048958 -0.968440
vn 0.473857 -0.094925 -0.875470
vn 0.473855 -0.094925 -0.875472
vn 0.670567 -0.134331 -0.729585
vn 0.827351 -0.165739 -0.536676
vn 0.932606 -0.186824 -0.308778
vn 0.932749 -0.186831 -0.308340
vn 0.978600 -0.196015 -0.062617
vn 0.978565 -0.196031 -0.063101
vn 0.963195 -0.192951 0.187151
vn 0.963111 -0.192913 0.187619
vn 0.887531 -0.177794 0.425063
vn 0.887717 -0.177812 0.424666
vn 0.754585 -0.151162 0.638554
vn 0.754580 -0.151161 0.638560
vn 0.576678 -0.115523 0.808763
vn 0.576683 -0.115523 0.808759
vn 0.361762 -0.072470 0.929450
vn 0.361761 -0.072470 0.929450
vn 0.122204 -0.024480 0.992203
vn 0.196394 0.980525 -0.000000
vn 0.196437 0.980516 -0.000011
vn 0.196372 0.980530 0.000025
vn 0.196444 0.980515 -0.000044
vn 0.196424 0.980519 -0.000012
vn 0.196403 0.980523 0.000055
vn 0.196410 0.980522 -0.000069
vn 0.196433 0.980517 0.000050
vn 0.196404 0.980523 -0.000013
vn 0.196429 0.980518 0.000019
vn 0.196419 0.980520 0.000011
vn 0.196369 0.980530 -0.000009
vn 0.196444 0.980515 0.000000
vn 0.196464 0.980511 -0.000002
vn 0.196341 0.980536 0.000047
vn 0.196438 0.980516 -0.000024
vn 0.196452 0.980513 -0.000042
vn 0.196414 0.980521 0.000040
vn 0.196412 0.980521 0.000051
vn 0.196406 0.980523 -0.000056
vn 0.196430 0.980518 0.000019
vn 0.196435 0.980517 0.000028
vn 0.196396 0.980525 -0.000010
vn 0.196431 0.980518 0.000010
vn 0.196393 0.980525 -0.000000
vn -0.196404 -0.980523 0.000001
vn -0.196424 -0.980519 0.000006
vn -0.196413 -0.980521 -0.000001
vn -0.196416 -0.980521 0.000003
vn -0.196373 -0.980529 -0.000066
vn -0.196408 -0.980522 0.000043
vn -0.196403 -0.980523 -0.000028
vn -0.196391 -0.980526 0.000037
vn -0.196403 -0.980523 0.000012
vn -0.196428 -0.980518 -0.000019
vn -0.196393 -0.980525 0.000006
vn -0.196457 -0.980513 -0.000019
vn -0.196359 -0.980532 -0.000007
vn -0.196457 -0.980512 0.000006
vn -0.196446 -0.980515 0.000002
vn -0.196364 -0.980531 -0.000059
vn -0.196467 -0.980511 0.000067
vn -0.196412 -0.980521 -0.000050
vn -0.196428 -0.980518 0.000031
vn -0.196432 -0.980518 -0.000038
vn -0.196424 -0.980519 -0.000013
vn -0.196391 -0.980526 0.000041
vn -0.196455 -0.980513 -0.000022
vn -0.196340 -0.980536 0.000043
vn -0.196502 -0.980503 0.000001
usemtl flat_black
s off
f 1//1 2//1 3//1
f 1//1 3//1 4//1
f 4//2 5//2 6//2
f 6//3 7//3 8//3
f 9//3 6//3 8//3
f 6//2 1//2 4//2
f 9//2 1//2 6//2
f 1//2 9//2 10//2
f 11//4 12//4 13//4
f 13//4 12//4 14//4
f 11//5 6//5 12//5
f 7//6 6//6 11//6
f 13//7 14//7 9//7
f 8//8 13//8 9//8
f 15//9 16//9 17//9
f 18//9 15//9 17//9
f 19//10 20//10 21//10
f 19//10 22//10 20//10
f 18//11 17//11 9//11
f 14//11 18//11 9//11
f 8//12 7//12 23//12
f 24//12 8//12 23//12
f 23//11 7//11 11//11
f 23//11 11//11 25//11
f 21//13 20//13 26//13
f 27//13 21//13 26//13
f 21//11 27//11 19//11
f 27//11 28//11 19//11
f 19//14 28//14 29//14
f 19//14 29//14 22//14
f 20//15 22//15 29//15
f 26//15 20//15 29//15
f 25//16 11//16 13//16
f 25//16 13//16 30//16
f 8//15 24//15 30//15
f 8//15 30//15 13//15
f 27//17 23//17 28//17
f 27//3 26//3 24//3
f 26//18 29//18 24//18
f 23//3 27//3 24//3
f 28//19 23//19 25//19
f 24//20 29//20 30//20
f 25//21 30//21 31//21
f 29//22 28//22 31//22
f 28//23 25//23 31//23
f 30//24 29//24 31//24
f 32//13 6//13 5//13
f 16//13 6//13 32//13
f 17//13 10//13 9//13
f 33//13 10//13 17//13
f 6//15 16//15 15//15
f 6//15 15//15 12//15
f 14//25 12//25 15//25
f 18//25 14//25 15//25
f 1//11 33//11 2//11
f 33//11 1//11 10//11
f 3//15 5//15 4//15
f 32//15 5//15 3//15
f 16//26 32//26 3//26
f 33//26 17//26 2//26
f 34//26 3//26 2//26
f 34//26 17//26 16//26
f 34//26 16//26 3//26
f 34//26 2//26 17//26
f 35//27 36//27 37//27
f 36//28 38//28 37//28
f 35//29 37//29 39//29
f 39//30 37//30 40//30
f 39//31 40//31 41//31
f 41//32 40//32 42//32
f 41//33 42//33 43//33
f 43//34 42//34 44//34
f 43//35 44//35 45//35
f 45//36 44//36 46//36
f 45//37 46//37 47//37
f 47//38 46//38 48//38
f 49//39 47//39 50//39
f 47//40 48//40 50//40
f 49//41 50//41 51//41
f 51//42 50//42 52//42
f 51//43 52//43 53//43
f 53//44 52//44 54//44
f 53//45 54//45 55//45
f 55//46 54//46 56//46
f 55//47 56//47 57//47
f 57//48 56//48 58//48
f 57//49 58//49 59//49
f 59//49 58//49 60//49
f 59//11 60//11 61//11
f 61//11 60//11 62//11
f 61//50 62//50 63//50
f 63//51 62//51 64//51
f 63//52 64//52 65//52
f 65//53 64//53 66//53
f 65//54 66//54 67//54
f 67//54 66//54 68//54
f 67//55 68//55 69//55
f 69//55 68//55 70//55
f 69//56 70//56 71//56
f 71//57 70//57 72//57
f 71//58 72//58 73//58
f 73//59 72//59 74//59
f 73//60 74//60 75//60
f 75//61 74//61 76//61
f 77//62 75//62 78//62
f 75//63 76//63 78//63
f 77//64 78//64 79//64
f 79//65 78//65 80//65
f 81//66 79//66 82//66
f 79//67 80//67 82//67
f 83//68 81//68 84//68
f 81//69 82//69 84//69
f 83//70 84//70 36//70
f 36//70 84//70 38//70
f 85//71 38//71 84//71
f 85//72 84//72 82//72
f 85//73 82//73 80//73
f 85//74 80//74 78//74
f 85//75 78//75 76//75
f 85//76 76//76 74//76
f 85//77 74//77 72//77
f 85//78 72//78 70//78
f 85//79 70//79 68//79
f 85//80 68//80 66//80
f 85//81 66//81 64//81
f 85//82 64//82 62//82
f 85//83 62//83 60//83
f 85//84 60//84 58//84
f 85//85 58//85 56//85
f 85//86 56//86 54//86
f 85//87 54//87 52//87
f 85//88 52//88 50//88
f 85//89 50//89 48//89
f 85//90 48//90 46//90
f 85//91 46//91 44//91
f 85//92 44//92 42//92
f 85//93 42//93 40//93
f 85//94 40//94 37//94
f 85//95 37//95 38//95
f 86//96 83//96 36//96
f 86//97 81//97 83//97
f 86//98 79//98 81//98
f 86//99 77//99 79//99
f 86//100 75//100 77//100
f 86//101 73//101 75//101
f 86//102 71//102 73//102
f 86//103 69//103 71//103
f 86//104 67//104 69//104
f 86//105 65//105 67//105
f 86//106 63//106 65//106
f 86//107 61//107 63//107
f 86//108 59//108 61//108
f 86//109 57//109 59//109
f 86//110 55//110 57//110
f 86//111 53//111 55//111
f 86//112 51//112 53//112
f 86//113 49//113 51//113
f 86//114 47//114 49//114
f 86//115 45//115 47//115
f 86//116 43//116 45//116
f 86//117 41//117 43//117
f 86//118 39//118 41//118
f 86//119 35//119 39//119
f 86//120 36//120 35//120
