# Blender v2.63 (sub 0) OBJ File: '18953.blend'
# www.blender.org
mtllib base_bm.mtl
v 91.166801 -0.539829 201.852005
v 111.513000 -4.615605 201.852005
v 111.513000 -4.615608 158.817993
v 91.166801 -0.539832 158.817993
v 89.978500 -6.471978 158.817993
v 89.978500 -6.471978 166.317993
v 89.487503 -8.923278 168.317993
v 89.487503 -8.923276 192.352005
v 89.978500 -6.471975 194.352005
v 89.978500 -6.471975 201.852005
v 83.496696 -38.829189 168.317993
v 83.103897 -40.790188 166.317993
v 83.496696 -38.829185 192.352005
v 83.103897 -40.790184 194.352005
v 86.045502 -41.379490 166.317993
v 110.324997 -10.547788 166.317993
v 110.324997 -10.547786 194.352005
v 86.045502 -41.379486 194.352005
v 91.348701 -14.905387 176.335007
v 91.938004 -11.963786 184.335007
v 91.938004 -11.963787 176.335007
v 91.348701 -14.905386 184.335007
v 89.977699 -9.021487 168.317993
v 89.977699 -9.021485 192.352005
v 83.987000 -38.927387 168.317993
v 89.486702 -11.472786 184.335007
v 89.486702 -11.472787 176.335007
v 88.897400 -14.414387 176.335007
v 88.897400 -14.414386 184.335007
v 83.987000 -38.927383 192.352005
v 86.982399 -23.974386 180.335007
v 110.324997 -10.547788 158.817993
v 110.324997 -10.547785 201.852005
v 110.918999 -7.581676 180.335007
v 103.502998 -7.141556 181.110001
v 103.698997 -7.180636 181.134995
v 102.620003 -11.553886 181.110001
v 102.815002 -11.592987 181.134995
v 103.320999 -7.104936 181.035995
v 102.436996 -11.517286 181.035995
v 103.162003 -7.073066 180.917999
v 102.278000 -11.485387 180.917999
v 103.036003 -7.047966 180.764008
v 102.152000 -11.460287 180.764008
v 102.953003 -7.031196 180.582001
v 102.069000 -11.443486 180.582001
v 102.916000 -7.023816 180.384995
v 102.031998 -11.436187 180.384995
v 102.928001 -7.026286 180.184998
v 102.043999 -11.438586 180.184998
v 102.988998 -7.038456 179.994003
v 102.105003 -11.450787 179.994003
v 103.094002 -7.059566 179.824997
v 102.209999 -11.471887 179.824997
v 103.237999 -7.088277 179.688004
v 102.353996 -11.500587 179.688004
v 103.410004 -7.122787 179.591003
v 102.526001 -11.535087 179.591003
v 103.599998 -7.160947 179.541000
v 102.716003 -11.573287 179.541000
v 103.796997 -7.200326 179.541000
v 102.913002 -11.612687 179.541000
v 103.987000 -7.238477 179.591003
v 103.102997 -11.650786 179.591003
v 104.160004 -7.272996 179.688004
v 103.276001 -11.685387 179.688004
v 104.303001 -7.301707 179.824997
v 103.418999 -11.714087 179.824997
v 104.407997 -7.322817 179.994003
v 103.524002 -11.735187 179.994003
v 104.469002 -7.334986 180.184998
v 103.584999 -11.747287 180.184998
v 104.481003 -7.337456 180.384995
v 103.598000 -11.749786 180.384995
v 104.445000 -7.330076 180.582001
v 103.560997 -11.742387 180.582001
v 104.361000 -7.313306 180.764008
v 103.476997 -11.725687 180.764008
v 104.236000 -7.288196 180.917999
v 103.351997 -11.700586 180.917999
v 104.075996 -7.256336 181.035995
v 103.193001 -11.668687 181.035995
v 103.893997 -7.219716 181.110001
v 103.010002 -11.632087 181.110001
v 102.815002 -11.592987 180.337997
v 103.698997 -7.180636 180.337997
vn 0.196419 0.980520 -0.000000
vn -0.980521 0.196414 -0.000000
vn -0.980524 0.196400 -0.000000
vn -0.980523 0.196404 -0.000000
vn -0.980520 0.196417 -0.000013
vn -0.980520 0.196420 0.000025
vn -0.980520 0.196417 0.000013
vn -0.980520 0.196420 -0.000025
vn 0.785642 -0.618681 0.000000
vn -0.980518 0.196431 -0.000000
vn 0.000000 0.000000 1.000000
vn -0.196443 -0.980515 0.000000
vn -0.196401 -0.980524 0.000000
vn 0.196401 0.980524 -0.000000
vn 0.000000 0.000000 -1.000000
vn 0.196380 0.980528 -0.000000
vn -0.980518 0.196431 0.000010
vn -0.980518 0.196431 -0.000010
vn -0.980521 0.196416 -0.000000
vn -0.980520 0.196419 -0.000000
vn -0.980521 0.196412 -0.000000
vn -0.980521 0.196414 0.000006
vn -0.980521 0.196414 -0.000006
vn -0.196418 -0.980520 0.000000
vn -0.196431 -0.980518 0.000000
vn 0.980531 -0.196365 0.000000
vn 0.980531 -0.196367 0.000000
vn 0.980531 -0.196364 0.000000
vn 0.121680 -0.024351 -0.992271
vn 0.122262 -0.024495 -0.992195
vn 0.363097 -0.072663 -0.928914
vn 0.361429 -0.072411 -0.929584
vn 0.576910 -0.115582 -0.808588
vn 0.576897 -0.115580 -0.808598
vn 0.752895 -0.150841 -0.640622
vn 0.889011 -0.178112 -0.421825
vn 0.888999 -0.178111 -0.421850
vn 0.963011 -0.192939 -0.188105
vn 0.963026 -0.192939 -0.188029
vn 0.978680 -0.196078 0.061148
vn 0.978685 -0.196076 0.061079
vn 0.932322 -0.186790 0.309654
vn 0.932303 -0.186784 0.309714
vn 0.828210 -0.165929 0.535291
vn 0.828230 -0.165935 0.535257
vn 0.668895 -0.134012 0.731178
vn 0.668900 -0.134014 0.731173
vn 0.474451 -0.095056 0.875135
vn 0.474455 -0.095057 0.875132
vn 0.244977 -0.049081 0.968286
vn 0.244959 -0.049077 0.968291
vn -0.244970 0.049079 0.968288
vn -0.244991 0.049084 0.968282
vn -0.472425 0.094650 0.876274
vn -0.472392 0.094642 0.876292
vn -0.671287 0.134489 0.728894
vn -0.671292 0.134491 0.728889
vn -0.828226 0.165932 0.535264
vn -0.828214 0.165928 0.535284
vn -0.932312 0.186784 0.309687
vn -0.932342 0.186794 0.309592
vn -0.978680 0.196078 0.061148
vn -0.978417 0.195802 0.066048
vn -0.963929 0.192903 -0.183385
vn -0.963008 0.192938 -0.188123
vn -0.887176 0.177742 -0.425825
vn -0.887201 0.177750 -0.425769
vn -0.755249 0.151311 -0.637733
vn -0.755254 0.151312 -0.637728
vn -0.574650 0.114998 -0.810280
vn -0.576897 0.115579 -0.808598
vn -0.363082 0.072741 -0.928914
vn -0.361457 0.072334 -0.929579
vn -0.122265 0.024495 -0.992195
vn -0.122262 0.024495 -0.992195
vn 0.196598 0.980484 0.000000
vn 0.196163 0.980571 0.000114
vn 0.196611 0.980482 -0.000138
vn 0.196658 0.980472 -0.000184
vn 0.196189 0.980566 0.000575
vn 0.196354 0.980533 0.000051
vn 0.196386 0.980527 -0.000511
vn 0.196370 0.980530 -0.000594
vn 0.196731 0.980457 0.000179
vn 0.196675 0.980469 0.000111
vn 0.196230 0.980558 -0.000217
vn 0.196629 0.980478 -0.000058
vn 0.196118 0.980580 -0.000123
vn 0.197046 0.980394 -0.000243
vn 0.196621 0.980480 -0.000072
vn 0.195891 0.980626 0.000467
vn 0.196531 0.980498 -0.000318
vn 0.196346 0.980535 0.000079
vn 0.196357 0.980532 0.000019
vn 0.196325 0.980539 -0.000544
vn 0.196742 0.980455 0.000785
vn 0.195951 0.980614 -0.000497
vn 0.196611 0.980482 0.000139
vn 0.196156 0.980573 -0.000117
vn 0.196603 0.980483 0.000000
vn -0.196502 -0.980503 0.000000
vn -0.197187 -0.980366 0.000180
vn -0.195736 -0.980656 -0.000635
vn -0.196653 -0.980473 0.000248
vn -0.196335 -0.980537 -0.000267
vn -0.196666 -0.980470 0.000788
vn -0.196603 -0.980483 -0.000312
vn -0.196489 -0.980506 0.000286
vn -0.196736 -0.980457 -0.000243
vn -0.196682 -0.980467 -0.000178
vn -0.195892 -0.980625 0.000405
vn -0.196863 -0.980431 0.000015
vn -0.196020 -0.980600 0.000123
vn -0.196858 -0.980432 0.000231
vn -0.196635 -0.980477 0.000142
vn -0.195900 -0.980624 -0.000401
vn -0.196527 -0.980498 0.000369
vn -0.196263 -0.980551 -0.000198
vn -0.196363 -0.980531 0.000327
vn -0.196373 -0.980529 0.000152
vn -0.196632 -0.980477 -0.000670
vn -0.195926 -0.980619 0.000473
vn -0.196487 -0.980507 -0.000067
vn -0.197096 -0.980384 -0.000411
vn -0.195540 -0.980696 -0.000000
usemtl flat_black
s off
f 1//1 2//1 3//1
f 1//1 3//1 4//1
f 4//2 5//2 6//2
f 6//3 7//3 8//3
f 9//3 6//3 8//3
f 6//2 1//2 4//2
f 9//2 1//2 6//2
f 1//2 9//2 10//2
f 11//4 12//4 13//4
f 13//4 12//4 14//4
f 11//5 6//5 12//5
f 7//6 6//6 11//6
f 13//7 14//7 9//7
f 8//8 13//8 9//8
f 15//9 16//9 17//9
f 18//9 15//9 17//9
f 19//10 20//10 21//10
f 19//10 22//10 20//10
f 18//11 17//11 9//11
f 14//11 18//11 9//11
f 8//12 7//12 23//12
f 24//12 8//12 23//12
f 23//11 7//11 11//11
f 23//11 11//11 25//11
f 21//13 20//13 26//13
f 27//13 21//13 26//13
f 21//11 27//11 19//11
f 27//11 28//11 19//11
f 19//14 28//14 29//14
f 19//14 29//14 22//14
f 20//15 22//15 29//15
f 26//15 20//15 29//15
f 25//16 11//16 13//16
f 25//16 13//16 30//16
f 8//15 24//15 30//15
f 8//15 30//15 13//15
f 27//17 23//17 28//17
f 27//3 26//3 24//3
f 26//18 29//18 24//18
f 23//3 27//3 24//3
f 28//19 23//19 25//19
f 24//19 29//19 30//19
f 25//20 30//20 31//20
f 29//21 28//21 31//21
f 28//22 25//22 31//22
f 30//23 29//23 31//23
f 32//24 6//24 5//24
f 16//24 6//24 32//24
f 17//24 10//24 9//24
f 33//24 10//24 17//24
f 6//15 16//15 15//15
f 6//15 15//15 12//15
f 14//25 12//25 15//25
f 18//25 14//25 15//25
f 1//11 33//11 2//11
f 33//11 1//11 10//11
f 3//15 5//15 4//15
f 32//15 5//15 3//15
f 16//26 32//26 3//26
f 33//26 17//26 2//26
f 34//27 3//27 2//27
f 34//28 17//28 16//28
f 34//26 16//26 3//26
f 34//26 2//26 17//26
f 35//29 36//29 37//29
f 36//30 38//30 37//30
f 35//31 37//31 39//31
f 39//32 37//32 40//32
f 39//33 40//33 41//33
f 41//34 40//34 42//34
f 41//35 42//35 43//35
f 43//35 42//35 44//35
f 43//36 44//36 45//36
f 45//37 44//37 46//37
f 45//38 46//38 47//38
f 47//39 46//39 48//39
f 49//40 47//40 50//40
f 47//41 48//41 50//41
f 49//42 50//42 51//42
f 51//43 50//43 52//43
f 51//44 52//44 53//44
f 53//45 52//45 54//45
f 53//46 54//46 55//46
f 55//47 54//47 56//47
f 55//48 56//48 57//48
f 57//49 56//49 58//49
f 57//50 58//50 59//50
f 59//51 58//51 60//51
f 59//11 60//11 61//11
f 61//11 60//11 62//11
f 61//52 62//52 63//52
f 63//53 62//53 64//53
f 63//54 64//54 65//54
f 65//55 64//55 66//55
f 65//56 66//56 67//56
f 67//57 66//57 68//57
f 67//58 68//58 69//58
f 69//59 68//59 70//59
f 69//60 70//60 71//60
f 71//61 70//61 72//61
f 71//62 72//62 73//62
f 73//63 72//63 74//63
f 73//64 74//64 75//64
f 75//65 74//65 76//65
f 77//66 75//66 78//66
f 75//67 76//67 78//67
f 77//68 78//68 79//68
f 79//69 78//69 80//69
f 81//70 79//70 82//70
f 79//71 80//71 82//71
f 83//72 81//72 84//72
f 81//73 82//73 84//73
f 83//74 84//74 36//74
f 36//75 84//75 38//75
f 85//76 38//76 84//76
f 85//77 84//77 82//77
f 85//78 82//78 80//78
f 85//79 80//79 78//79
f 85//80 78//80 76//80
f 85//81 76//81 74//81
f 85//82 74//82 72//82
f 85//83 72//83 70//83
f 85//84 70//84 68//84
f 85//85 68//85 66//85
f 85//86 66//86 64//86
f 85//87 64//87 62//87
f 85//88 62//88 60//88
f 85//89 60//89 58//89
f 85//90 58//90 56//90
f 85//91 56//91 54//91
f 85//92 54//92 52//92
f 85//93 52//93 50//93
f 85//94 50//94 48//94
f 85//95 48//95 46//95
f 85//96 46//96 44//96
f 85//97 44//97 42//97
f 85//98 42//98 40//98
f 85//99 40//99 37//99
f 85//100 37//100 38//100
f 86//101 83//101 36//101
f 86//102 81//102 83//102
f 86//103 79//103 81//103
f 86//104 77//104 79//104
f 86//105 75//105 77//105
f 86//106 73//106 75//106
f 86//107 71//107 73//107
f 86//108 69//108 71//108
f 86//109 67//109 69//109
f 86//110 65//110 67//110
f 86//111 63//111 65//111
f 86//112 61//112 63//112
f 86//113 59//113 61//113
f 86//114 57//114 59//114
f 86//115 55//115 57//115
f 86//116 53//116 55//116
f 86//117 51//117 53//117
f 86//118 49//118 51//118
f 86//119 47//119 49//119
f 86//120 45//120 47//120
f 86//121 43//121 45//121
f 86//122 41//122 43//122
f 86//123 39//123 41//123
f 86//124 35//124 39//124
f 86//125 36//125 35//125
